<?xml version="1.0" encoding="UTF-8"?>
<svg xmlns="http://www.w3.org/2000/svg" id="Layer_1" data-name="Layer 1" viewBox="0 0 24 24" width="512" height="512"><path d="M1,24a1,1,0,0,0,.707-.293l6.619-6.619L9.574,18.38a5.169,5.169,0,0,0,3.605,1.614,3.991,3.991,0,0,0,1.339-.227,3.63,3.63,0,0,0,2.435-3.122,8.486,8.486,0,0,0-.222-3.027l-.214-1.042a1,1,0,0,1,.264-.943l1.587-1.588a.34.34,0,0,1,.236-.1.17.17,0,0,1,.167.065,3.077,3.077,0,0,0,3.971.432,3,3,0,0,0,.379-4.565L18.2.954a3.085,3.085,0,0,0-3.938-.4,3,3,0,0,0-.38,4.565l.076.076a.308.308,0,0,1,0,.434l-1.6,1.6a1,1,0,0,1-.954.261l-.817-.209a8.632,8.632,0,0,0-3.082-.233A3.863,3.863,0,0,0,4.25,9.634a4,4,0,0,0,.928,4.2l1.758,1.82L.293,22.293A1,1,0,0,0,1,24Z"/></svg>
